<svg id="Layer_1" enable-background="new 0 0 512 512" height="512" viewBox="0 0 512 512" width="512" xmlns="http://www.w3.org/2000/svg"><g id="XMLID_2_"><g id="XMLID_3659_"><path id="XMLID_1520_" d="m279 25 16.7-20 9.7 24.2c7 17.4 28 24.2 43.8 14.2l22.1-13.9 1.7 26c1.2 18.7 19.1 31.7 37.3 27.1l25.3-6.4-6.4 25.3c-4.6 18.2 8.4 36 27.1 37.3l26 1.7-13.9 22.1c-10 15.9-3.1 36.9 14.2 43.8l24.2 9.7-19.8 16.9c-14.4 12-14.4 34.1 0 46.1l20 16.7-24.2 9.7c-17.4 7-24.2 28-14.2 43.8l13.9 22.1-26 1.7c-18.7 1.2-31.7 19.1-27.1 37.3l6.4 25.3-25.3-6.4c-18.2-4.6-36 8.4-37.3 27.1l-1.7 26-22.1-13.9c-15.9-10-36.9-3.1-43.8 14.2l-9.7 24.2-16.9-19.9c-12-14.4-34.1-14.4-46.1 0l-16.7 20-9.7-24.2c-7-17.4-28-24.2-43.8-14.2l-22.1 13.9-1.7-26c-1.2-18.7-19.1-31.7-37.3-27.1l-25.3 6.4 6.4-25.3c4.6-18.2-8.4-36-27.1-37.3l-26-1.7 13.9-22.1c10-15.9 3.1-36.9-14.2-43.8l-24.3-9.8 20-16.8c14.4-12 14.4-34.1 0-46.1l-20-16.7 24.2-9.7c17.4-7 24.2-28 14.2-43.8l-13.9-22.1 26-1.7c18.7-1.2 31.7-19.1 27.1-37.3l-6.4-25.3 25.3 6.4c18.2 4.6 36-8.4 37.3-27.1l1.7-26 22.1 13.9c15.9 10 36.9 3.1 43.8-14.2l9.8-24.3 16.8 20c11.9 14.4 34.1 14.4 46 0z" fill="#ffdca4"/><circle id="XMLID_2028_" cx="256" cy="256" fill="#ffb234" r="175"/><path id="XMLID_2027_" d="m81 256c0-96.6 78.4-175 175-175-38.5 0-69.7 78.4-69.7 175s31.2 175 69.7 175c-96.6 0-175-78.4-175-175z" fill="#ffc96f"/><g id="XMLID_1497_"><g id="XMLID_1499_"><path id="XMLID_1506_" d="m331 156h10v30h-10z" fill="#ffdca4"/></g><g id="XMLID_1498_"><path id="XMLID_1505_" d="m321 166h30v10h-30z" fill="#ffdca4"/></g></g><g id="XMLID_1684_"><g id="XMLID_1686_"><path id="XMLID_1504_" d="m191 326h10v30h-10z" fill="#ffdca4"/></g><g id="XMLID_1685_"><path id="XMLID_1503_" d="m181 336h30v10h-30z" fill="#ffdca4"/></g></g></g></g></svg>