<svg id="Layer_1" enable-background="new 0 0 512 512" height="512" viewBox="0 0 512 512" width="512" xmlns="http://www.w3.org/2000/svg"><g id="XMLID_1_"><g id="XMLID_3547_"><path id="XMLID_1383_" d="m397.4 169.6 20.2-7.1s48.3 4.5 68.5 57l-4.4 21.8" fill="#69bdfb"/><path id="XMLID_1449_" d="m200.4 18.4 14.4-13.4 8.2 17.9c6.5 14.3 23 21.1 37.7 15.6l18.4-6.8.7 19.6c.6 15.7 13.2 28.2 28.8 28.8l19.6.7-6.8 18.4c-5.4 14.7 1.4 31.1 15.6 37.7l17.9 8.2-13.4 14.4c-10.7 11.5-10.7 29.3 0 40.8l13.4 14.4-17.9 8.2c-14.3 6.5-21.1 23-15.6 37.7l6.8 18.4-19.6.7c-15.7.6-28.2 13.2-28.8 28.8l-.7 19.6-18.4-6.8c-14.7-5.4-31.1 1.4-37.7 15.6l-8.2 17.9-14.4-13.4c-11.5-10.7-29.3-10.7-40.8 0l-14.4 13.6-8.2-17.9c-6.5-14.3-23-21.1-37.7-15.6l-18.4 6.8-.7-19.6c-.7-15.7-13.2-28.2-28.9-28.8l-19.6-.7 6.8-18.4c5.4-14.7-1.4-31.1-15.6-37.7l-17.9-8.3 13.4-14.4c10.7-11.5 10.7-29.3 0-40.8l-13.4-14.4 17.9-8.2c14.3-6.5 21.1-23 15.6-37.7l-6.8-18.4 19.6-.7c15.7-.7 28.2-13.2 28.8-28.9l.7-19.6 18.4 6.8c14.7 5.4 31.1-1.4 37.7-15.6l8.3-17.9 14.4 13.4c11.5 10.6 29.3 10.6 40.8 0z" fill="#ffdca4"/><circle id="XMLID_1448_" cx="180" cy="180" fill="#ffc96f" r="125"/><path id="XMLID_1313_" d="m139.9 298.4c12.6 4.3 26.1 6.6 40.1 6.6 69 0 125-56 125-125 0-14-2.3-27.5-6.6-40.1-80.8 14-144.5 77.7-158.5 158.5z" fill="#ffb234"/><circle id="XMLID_1401_" cx="332" cy="332" fill="#9cd3fc" r="175"/><path id="XMLID_506_" d="m210.1 264.2 7.7 34.3s49.4 21.4 81.3-18.9c26.9-33.9 12.5-77 12.5-77l-34.1-6.1" fill="#cde9fe"/><path id="XMLID_251_" d="m332 157c41.4 0 75 78.4 75 175s-33.6 175-75 175c96.6 0 175-78.4 175-175s-78.4-175-175-175z" fill="#69bdfb"/><path id="XMLID_464_" d="m408.4 459.6-27.5-4.9s-10.5-44.6 12.9-65.3c23.5-20.7 62.6-11.8 62.6-11.8l6.2 27.6" fill="#cde9fe"/><ellipse id="XMLID_1400_" cx="252.3" cy="238.8" fill="#69bdfb" rx="34" ry="51" transform="matrix(.707 .707 -.707 .707 242.75 -108.463)"/><path id="XMLID_1399_" d="m276.3 262.8c16.6-16.6 23.1-38.2 17-52.5-14.4-6.1-35.9.4-52.5 17s-23.1 38.2-17 52.5c14.4 6.1 35.9-.3 52.5-17z" fill="#9cd3fc"/><g id="XMLID_1396_"><path id="XMLID_512_" d="m241.1 287.5h27.5v10h-27.5z" fill="#69bdfb" transform="matrix(.364 .932 -.932 .364 434.593 -51.312)"/></g><g id="XMLID_1395_"><path id="XMLID_511_" d="m275.4 264.4h28.2v10h-28.2z" fill="#69bdfb" transform="matrix(.685 .729 -.729 .685 287.426 -126.061)"/></g><g id="XMLID_1394_"><path id="XMLID_510_" d="m294.3 228.8h22.8v10h-22.8z" fill="#69bdfb" transform="matrix(.969 .246 -.246 .969 66.759 -67.902)"/></g><ellipse id="XMLID_1393_" cx="428.7" cy="425.6" fill="#9cd3fc" rx="27.3" ry="41" transform="matrix(-.707 -.707 .707 -.707 430.907 1029.743)"/><ellipse id="XMLID_1392_" cx="271.2" cy="410.3" fill="#69bdfb" rx="27.3" ry="41" transform="matrix(.707 -.707 .707 .707 -210.7 311.903)"/><path id="XMLID_1391_" d="m251.1 376.3c-3 11.4 2.4 27.1 14.7 39.4s28 17.7 39.4 14.7c3-11.4-2.4-27.1-14.7-39.4-12.3-12.4-28-17.7-39.4-14.7z" fill="#9cd3fc"/><ellipse id="XMLID_1390_" cx="408.5" cy="269.5" fill="#9cd3fc" rx="27.3" ry="41" transform="matrix(.707 -.707 .707 .707 -70.884 367.775)"/><path id="XMLID_1389_" d="m374.6 248.9c-3.3 11.5 2.1 27.4 14.6 39.9 13.3 13.3 30.5 18.5 42 13.8 3.3-11.5-2.1-27.4-14.6-39.9-13.2-13.3-30.4-18.6-42-13.8z" fill="#69bdfb"/><path id="XMLID_1388_" d="m434.8 431.7c12.5-12.5 17.9-28.5 14.5-39.9-11.5-3.4-27.4 2-39.9 14.5s-17.9 28.5-14.5 39.9c11.4 3.4 27.4-2 39.9-14.5z" fill="#69bdfb"/><g id="XMLID_1385_"><path id="XMLID_509_" d="m379.9 410.1h20.5v10h-20.5z" fill="#69bdfb" transform="matrix(.9 .437 -.437 .9 220.591 -128.76)"/></g><g id="XMLID_1384_"><path id="XMLID_508_" d="m411.1 381.6h19.2v10h-19.2z" fill="#69bdfb" transform="matrix(.324 .946 -.946 .324 650.1 -136.63)"/></g></g></g></svg>