<svg id="Layer_1" enable-background="new 0 0 512 512" height="512" viewBox="0 0 512 512" width="512" xmlns="http://www.w3.org/2000/svg"><g id="XMLID_1_"><g id="XMLID_3757_"><path id="XMLID_1374_" d="m507 406c0-69.2-40.1-186.7-176-264 0 0 61.9 105.7 5 86.9s-34.6-101.2-126.2-148.8c0 0 35.7 77.4-15.4 62.3-67.7-19.9-62.7-121.8-189.4-137.4 0 0 149.6 124.3 122.3 159.9s-122.3-89.9-122.3-89.9 8.4 120.5 112.3 146.8c155.1 39.2 131.1 165.8 19.9 65.4 0 0 90.2 219.8 268.8 219.8 70.7 0 101-48.4 101-101z" fill="#ffc96f"/><path id="XMLID_1373_" d="m481 406c0-74.2-71.3-118.2-125.6-138.7 0 0 42 52.2 7.2 50.2s-50.3-68.3-106.8-58.5c0 0 69.4 51.7 53.5 102.5-11.8 37.6-48.7-27.2-48.7-27.2s5.5 146.7 145.4 146.7" fill="#db3529"/><circle id="XMLID_1375_" cx="406" cy="406" fill="#e36415" r="75"/><path id="XMLID_2041_" d="m441.9 340.1c5.8 10.7 9.1 22.9 9.1 35.9 0 41.4-33.6 75-75 75-13 0-25.2-3.3-35.9-9.1 12.7 23.3 37.5 39.1 65.9 39.1 41.4 0 75-33.6 75-75 0-28.4-15.8-53.2-39.1-65.9z" fill="#ef8039"/><ellipse id="XMLID_1372_" cx="427.8" cy="449.6" fill="#e36415" rx="23.6" ry="9" transform="matrix(.948 -.32 .32 .948 -121.238 160.269)"/><ellipse id="XMLID_1371_" cx="427.4" cy="361.3" fill="#b24e10" rx="21.4" ry="10" transform="matrix(.833 .553 -.553 .833 271.004 -176.023)"/><ellipse id="XMLID_1370_" cx="366.7" cy="406.3" fill="#b24e10" rx="16.4" ry="22.2"/><g id="XMLID_1369_"><path id="XMLID_2038_" d="m406 512c-88.4 0-164.9-33.8-213.5-62.2l5-8.6c47.6 27.7 122.3 60.8 208.5 60.8 58.3 0 96-37.7 96-96 0-64.8-29.9-199.5-30.2-200.9l9.8-2.2c1.2 5.6 30.4 137.2 30.4 203 0 31.3-9.9 57.8-28.7 76.8-19 19.2-45.7 29.3-77.3 29.3z" fill="#ffb234"/></g><g id="XMLID_1368_"><path id="XMLID_1367_" d="m170.9 436.4c-11.7-7.7-18.1-12.8-18.4-13l6.2-7.8c.1 0 6.4 5 17.7 12.5z" fill="#ffb234"/></g></g></g></svg>