<svg id="Layer_1" enable-background="new 0 0 512 512" height="512" viewBox="0 0 512 512" width="512" xmlns="http://www.w3.org/2000/svg"><g id="XMLID_1_"><g id="XMLID_3589_"><path id="XMLID_1268_" d="m366 105c22.6 25.8 35 58.9 35 93.2v308.8h-70v-308.8c0-34.3 12.4-67.4 35-93.2z" fill="#ffc96f"/><path id="XMLID_1276_" d="m256 5c-6.5 0-12.9 1.8-18.5 5.2-35.1 21.6-56.5 59.9-56.5 101.1v355.7h150v-355.7c0-41.2-21.4-79.5-56.5-101.1-5.6-3.4-12-5.2-18.5-5.2z" fill="#e36415"/><path id="XMLID_1046_" d="m274.5 10.2c-5.6-3.4-12-5.2-18.5-5.2 2.2 0 4.3 1.8 6.2 5.2 11.7 21.6 18.8 59.9 18.8 101.1v355.7h50v-355.7c0-41.2-21.4-79.5-56.5-101.1z" fill="#b24e10"/><path id="XMLID_1278_" d="m146 105c-22.6 25.8-35 58.9-35 93.2v308.8h70v-308.8c0-34.3-12.4-67.4-35-93.2z" fill="#ffc96f"/><g fill="#ffb234"><path id="XMLID_1044_" d="m146 105c6.4 25.8 10 58.9 10 93.2v268.8h25v-268.8c0-34.3-12.4-67.4-35-93.2z"/><path id="XMLID_1041_" d="m366 105c6.4 25.8 10 58.9 10 93.2v268.8h25v-268.8c0-34.3-12.4-67.4-35-93.2z"/><path id="XMLID_1266_" d="m111 452h70v30h-70z"/><path id="XMLID_1476_" d="m331 452h70v30h-70z"/></g><path id="XMLID_1277_" d="m268.5 151c23.7 19 37.5 47.7 37.5 78v238h-100v-238c0-30.4 13.8-59.1 37.5-78 7.3-5.8 17.7-5.8 25 0z" fill="#9cd3fc"/><path id="XMLID_528_" d="m243.5 151c3.7-2.9 8.1-4.4 12.5-4.4-2.7 0-5.3 1.5-7.5 4.4-14.2 19-22.5 47.7-22.5 78v238h-20v-238c0-30.3 13.8-59 37.5-78z" fill="#cde9fe"/><path id="XMLID_2114_" d="m291.4 177h-70.8c6-9.8 13.7-18.6 22.9-26 3.6-2.9 8.1-4.4 12.5-4.4s8.8 1.5 12.5 4.4c9.2 7.4 16.9 16.2 22.9 26z" fill="#3279af"/><path id="XMLID_1275_" d="m206 256-60 106.8-90 74.2v30h150z" fill="#9cd3fc"/><path id="XMLID_1273_" d="m276 407h-40c-16.6 0-30 13.4-30 30v30h100v-30c0-16.6-13.4-30-30-30z" fill="#69bdfb"/><g id="XMLID_1270_"><path id="XMLID_1039_" d="m113 172h66v10h-66z" fill="#3279af"/></g><g id="XMLID_1269_"><path id="XMLID_1038_" d="m111 251h70v10h-70z" fill="#3279af"/></g><path id="XMLID_1267_" d="m306 256 60 106.8 90 74.2v30h-150z" fill="#69bdfb"/><path id="XMLID_1265_" d="m286 236v20s-16.8-13.2-30-13.2-30 13.2-30 13.2v-20s7.4-20 30-20 30 20 30 20z" fill="#3279af"/><g id="XMLID_1264_"><path id="XMLID_1035_" d="m333 172h66v10h-66z" fill="#3279af"/></g><g id="XMLID_1263_"><path id="XMLID_1034_" d="m331 251h70v10h-70z" fill="#3279af"/></g><g id="XMLID_1262_"><path id="XMLID_1040_" d="m181 100h150v10h-150z" fill="#ffc96f"/></g><path id="XMLID_859_" d="m56 437h150v30h-150z" fill="#3279af"/><path id="XMLID_2143_" d="m306 437h150v30h-150z" fill="#3279af"/><g id="XMLID_1272_"><path id="XMLID_2144_" d="m251 407h10v80h-10z" fill="#3279af"/></g></g></g></svg>