<svg id="Layer_1" enable-background="new 0 0 512 512" height="512" viewBox="0 0 512 512" width="512" xmlns="http://www.w3.org/2000/svg"><g id="XMLID_1_"><g id="XMLID_3477_"><circle id="XMLID_1475_" cx="256" cy="256" fill="#cde9fe" r="251"/><path id="XMLID_2503_" d="m507 256c0 138.6-112.4 251-251 251 55.2 0 100-112.4 100-251s-44.8-251-100-251c138.6 0 251 112.4 251 251z" fill="#9cd3fc"/><path id="XMLID_2481_" d="m507 256c0 22.5-3 44.2-8.5 65-38.3 0-45.8-27.8-78.1-27.8s-30.2-46.7 0-43.8 45.3-50.3 78.8-55.4c5.1 19.8 7.8 40.6 7.8 62z" fill="#69bdfb"/><g fill="#9cd3fc"><path id="XMLID_2483_" d="m424.3 442.2c-44.5 40.3-103.5 64.8-168.3 64.8-51.1 0-98.6-15.3-138.2-41.5 32.6-66.2 121.3 15.3 157.6 15.3 36.3.1 79.7-38.6 148.9-38.6z"/><path id="XMLID_2485_" d="m328.1 15.5c-37.1 50.3-134.9 39.9-169 8.9 29.8-12.5 62.5-19.4 96.9-19.4 25.1 0 49.3 3.7 72.1 10.5z"/><path id="XMLID_2462_" d="m461.9 112.5c-40.1 7.9-19.8 73.4-46.2 73.5s-43.7-17.4-76.2-15.3c-32.5 2-50.8-49.8-5.1-55.6s38.6-52.1 66.5-64.1c23.7 16.8 44.4 37.6 61 61.5z"/><path id="XMLID_2486_" d="m215.4 233.8c-31.5-6.3-34.8-36-68-47.8-33.3-11.7-97.2 33.5-134.7 8 3.8-15 9-29.4 15.4-43.2 79.3 17.2 54.7-30 23.6-40.5 7.3-10.3 15.4-20 24.2-29 53 22.6 49.4 48.1 82.3 56.6 33.8 8.8 67.5-17.2 91.6-8.6 32.2 11.4 18 114.8-34.4 104.5z"/><path id="XMLID_2484_" d="m387.8 386.1c-38.2 25.8-117.2 34.9-161.2 24.1s-72.3-45.6-100.5-49.7c-28.2-4.2-32.4 37.5-80.6 32.5-20.2-31-33.8-67-38.6-105.6 36.9 14.9 92.6-15.9 124.2-7.6s48.2 56.4 98.9 62.3c50.7 5.8 66.5-33 99.7-31.9 33.2 1.2 29.8 40.2 54.8 36.9 25-3.4 41.6 13.3 3.3 39z"/></g><path id="XMLID_2507_" d="m262.1 506.9c62.3-1.5 119.1-25.7 162.2-64.7-51.3 0-88.5 21.3-119 32.3-14.6 20.7-31.4 32.5-49.3 32.5 2 0 3.9 0 5.9-.1z" fill="#69bdfb"/><path id="XMLID_2510_" d="m304.3 36.2c9.3-5.3 17.4-12.1 23.8-20.7-21.3-6.4-43.7-10-66.9-10.5-.3 0-.6 0-.9 0-1.4 0-2.8 0-4.2 0 17.4 0 33.9 11.3 48.2 31.2z" fill="#69bdfb"/><path id="XMLID_2514_" d="m400.9 51c-27 11.6-21.2 55.4-62.3 63.4 4.7 17.3 8.6 36.2 11.5 56.3 26 1.7 42.2 15.4 65.6 15.3 26.4-.1 6.1-65.6 46.2-73.5-16.6-23.9-37.3-44.7-61-61.5z" fill="#69bdfb"/><path id="XMLID_2508_" d="m384.5 347.1c-16.9 2.3-20.8-14.9-31.8-26.5-3.3 31.7-9.1 60.9-16.8 86.4 20.1-4.8 38.5-11.8 51.9-20.8 38.3-25.8 21.7-42.5-3.3-39.1z" fill="#69bdfb"/><path id="XMLID_1452_" d="m307 350.5c-15.5 9.1-12.1 37.7 9.9 27.5s17.4-43.5-9.9-27.5z" fill="#cde9fe"/><path id="XMLID_1451_" d="m378.8 145.7c16.8 6.3 36.8-14.5 15-25s-44.6 13.9-15 25z" fill="#9cd3fc"/></g></g></svg>